<?xml version="1.0" standalone="no"?>
<!DOCTYPE svg PUBLIC "-//W3C//DTD SVG 20010904//EN"
 "http://www.w3.org/TR/2001/REC-SVG-20010904/DTD/svg10.dtd">
<svg version="1.0" xmlns="http://www.w3.org/2000/svg"
 width="260.000000pt" height="260.000000pt" viewBox="0 0 260.000000 260.000000"
 preserveAspectRatio="xMidYMid meet">
<metadata>
Created by potrace 1.11, written by Peter Selinger 2001-2013
</metadata>
<g transform="translate(0.000000,260.000000) scale(0.100000,-0.100000)"
fill="#000000" stroke="none">
<path d="M401 2134 c-70 -19 -111 -44 -162 -102 -65 -74 -139 -240 -154 -348
-3 -22 -8 -45 -10 -52 -18 -53 -25 -383 -12 -525 23 -237 120 -449 244 -535
95 -66 231 -73 328 -16 112 65 217 242 249 419 38 209 40 485 5 678 -63 352
-256 541 -488 481z m169 -295 c117 -66 175 -319 147 -649 -22 -267 -119 -410
-263 -387 -93 15 -163 125 -196 312 -15 89 -15 371 1 450 36 179 93 266 189
295 36 11 79 3 122 -21z"/>
<path d="M1050 1336 c0 -618 3 -785 13 -788 6 -2 101 -3 209 -2 186 2 200 3
250 27 130 60 209 211 249 478 14 92 18 379 7 499 -25 279 -117 478 -247 538
-54 25 -65 26 -268 29 l-213 3 0 -784z m416 488 c54 -26 93 -104 120 -244 10
-54 12 -387 2 -476 -13 -116 -42 -207 -78 -241 -39 -37 -56 -41 -172 -42 l-98
-1 0 514 0 514 95 -3 c61 -3 108 -10 131 -21z"/>
<path d="M1932 1332 l3 -786 300 -1 c165 0 306 1 313 3 9 3 12 40 12 138 l0
134 -177 -1 c-98 0 -197 0 -220 1 l-42 0 -1 641 c0 352 -2 644 -5 649 -2 4
-45 8 -95 8 l-90 1 2 -787z"/>
</g>
</svg>
